<svg xmlns="http://www.w3.org/2000/svg" viewBox="0 0 24 24"><defs><style>.cls-1{fill:#0e4c92;}.cls-2{fill:#fff;}</style></defs><g id="Layer_2" data-name="Layer 2"><g id="Layer_1-2" data-name="Layer 1"><path d="M12,0A12,12,0,0,0,1.91,18.5h0c.11.17.22.33.34.49a13.37,13.37,0,0,0,.89,1.1,12,12,0,0,0,7.38,3.81h0A11.84,11.84,0,0,0,12,24a12,12,0,0,0,5.63-1.4s0,0,0,0A11.94,11.94,0,0,0,21.75,19c.12-.16.23-.33.34-.5A12,12,0,0,0,12,0ZM4.88,19a10,10,0,0,1,11.49,2A9.94,9.94,0,0,1,4.88,19ZM20.4,17.42c-.08.13-.16.26-.27.41a9.92,9.92,0,0,1-2,2.08,12,12,0,0,0-14.53-2.5A10,10,0,1,1,22,12,9.9,9.9,0,0,1,20.4,17.42Z"/><path d="M9.25,8a2,2,0,1,1-2,2,2,2,0,0,1,2-2m0-2a4,4,0,1,0,4,4,4,4,0,0,0-4-4Z"/><circle class="cls-1" cx="19" cy="5" r="5"/><polygon class="cls-2" points="22 4 20 4 20 2 18 2 18 4 16 4 16 6 18 6 18 8 20 8 20 6 22 6 22 4"/></g></g></svg>