<svg xmlns="http://www.w3.org/2000/svg" viewBox="0 0 24 21.42"><g id="Layer_2" data-name="Layer 2"><g id="Layer_1-2" data-name="Layer 1"><path d="M16.45,3.85,15,5.35A7.52,7.52,0,0,0,12,4.71c-4.12,0-7.87,4-9.49,6a23,23,0,0,0,3.54,3.54L4.63,15.67a25.07,25.07,0,0,1-4.63-5s5.37-8,12-8A10,10,0,0,1,16.45,3.85ZM12,5.78a5,5,0,0,0-5,5,4.93,4.93,0,0,0,.45,2.07L9,11.26a2.59,2.59,0,0,1,0-.48,3,3,0,0,1,3-3,2.52,2.52,0,0,1,.48,0l1.59-1.59A4.93,4.93,0,0,0,12,5.78Zm12,4.93s-5.37,8-12,8a10.09,10.09,0,0,1-4.45-1.13L3.71,21.42,2.29,20l3.48-3.48,1.44-1.44,1-1,1.42-1.42,4.21-4.21L15.28,7l1-1,1.44-1.44h0L22.29,0l1.42,1.42L19.38,5.75A25.19,25.19,0,0,1,24,10.71Zm-12.59,3a2.88,2.88,0,0,0,.59.06,3,3,0,0,0,3-3,2.88,2.88,0,0,0-.06-.59Zm10.08-3A22.52,22.52,0,0,0,18,7.18L16.51,8.62a5,5,0,0,1-6.67,6.67l-.78.78a7.51,7.51,0,0,0,2.94.64C16.12,16.71,19.87,12.71,21.49,10.71Z"/></g></g></svg>