<svg xmlns="http://www.w3.org/2000/svg" viewBox="0 0 20 18.18"><g id="Layer_2" data-name="Layer 2"><g id="Layer_1-2" data-name="Layer 1"><path d="M14.55,2A3.47,3.47,0,0,1,18,5.45a3.42,3.42,0,0,1-1,2.44l0,0,0,0L10,15.27,3.05,7.93l0,0,0,0A3.44,3.44,0,0,1,3,3,3.39,3.39,0,0,1,5.45,2,3.44,3.44,0,0,1,7.92,3a4.09,4.09,0,0,1,.42.51L10,6.05l1.66-2.5A4.15,4.15,0,0,1,12.11,3a3.42,3.42,0,0,1,2.44-1m0-2a5.42,5.42,0,0,0-3.86,1.6,5.13,5.13,0,0,0-.69.85,5.13,5.13,0,0,0-.69-.85,5.44,5.44,0,0,0-7.71,0,5.44,5.44,0,0,0,0,7.71L10,18.18l8.4-8.87a5.44,5.44,0,0,0,0-7.71A5.41,5.41,0,0,0,14.55,0Z"/></g></g></svg>