<svg xmlns="http://www.w3.org/2000/svg" viewBox="0 0 24 24"><g id="Layer_2" data-name="Layer 2"><g id="Layer_1-2" data-name="Layer 1"><path d="M12,0A12,12,0,0,0,1.91,18.5c.11.17.22.34.34.5a12,12,0,0,0,19.5,0c.12-.16.23-.33.34-.5A12,12,0,0,0,12,0ZM10.89,21.93l-.35-.05c-.25,0-.5-.08-.74-.14l-.39-.09-.7-.22-.35-.13c-.25-.1-.5-.21-.74-.33-.08,0-.17-.07-.25-.12A9.89,9.89,0,0,1,5.5,19.59l-.1-.09c-.18-.16-.36-.34-.53-.51a10,10,0,0,1,14.26,0l-.43.42-.23.21a8.08,8.08,0,0,1-.88.66l-.15.1a9,9,0,0,1-.79.46l-.33.16q-.33.16-.66.3l-.39.14-.67.2-.4.11-.74.13-.35.05A10.34,10.34,0,0,1,12,22,10.34,10.34,0,0,1,10.89,21.93Zm9.51-4.51v0a11.93,11.93,0,0,0-16.78,0l0,0A10,10,0,1,1,22,12,9.9,9.9,0,0,1,20.4,17.42Z"/><path d="M12,4a4,4,0,1,0,4,4A4,4,0,0,0,12,4Zm0,6a2,2,0,1,1,2-2A2,2,0,0,1,12,10Z"/></g></g></svg>