<svg xmlns="http://www.w3.org/2000/svg" viewBox="0 0 24 24"><g id="Layer_2" data-name="Layer 2"><g id="Layer_1-2" data-name="Layer 1"><path d="M13.42,3A5,5,0,0,0,18,6a5,5,0,0,0,1.81-.34l.53.53A5,5,0,0,0,23,12.58v.84a5,5,0,0,0-2.66,6.39l-.53.53A5,5,0,0,0,13.42,23h-.84a5,5,0,0,0-6.39-2.66l-.53-.53A5,5,0,0,0,6,18a5,5,0,0,0-3-4.58v-.84A5,5,0,0,0,6,8a5,5,0,0,0-.34-1.81l.53-.53A5,5,0,0,0,8,6a5,5,0,0,0,4.58-3h.84M13,19a6,6,0,1,0-6-6,6,6,0,0,0,6,6M15,1H11A3,3,0,0,1,8,4a3,3,0,0,1-2.1-.87L3.13,5.9A3,3,0,0,1,4,8a3,3,0,0,1-3,3v4a3,3,0,0,1,3,3,3,3,0,0,1-.87,2.1L5.9,22.87A3,3,0,0,1,8,22a3,3,0,0,1,3,3h4a3,3,0,0,1,3-3,3,3,0,0,1,2.1.87l2.77-2.77A3,3,0,0,1,22,18a3,3,0,0,1,3-3V11a3,3,0,0,1-3-3,3,3,0,0,1,.87-2.1L20.1,3.13A3,3,0,0,1,18,4a3,3,0,0,1-3-3ZM13,17a4,4,0,1,1,4-4,4,4,0,0,1-4,4Z" transform="translate(-1 -1)"/></g></g></svg>