<svg xmlns="http://www.w3.org/2000/svg" width="204.674" height="49.594" viewBox="0 0 204.674 49.594">
  <g id="Group_8" data-name="Group 8" transform="translate(-102.599 -45.507)">
    <g id="Group_7" data-name="Group 7" transform="translate(102.599 45.507)">
      <path id="Path_6" data-name="Path 6" d="M205.055,76.008l97.075,0a13.928,13.928,0,0,1,3.523.108,2.365,2.365,0,0,1,1.416,1.758,2.424,2.424,0,0,1-1.457,1.728,10.41,10.41,0,0,1-3.078.1q-97.962,0-195.924,0a7.258,7.258,0,0,1-2.625-.119,2.463,2.463,0,0,1-1.386-1.744,2.289,2.289,0,0,1,1.41-1.693,18.731,18.731,0,0,1,3.969-.143Q156.518,76,205.055,76.008Z" transform="translate(-102.599 -30.177)" fill="#1f1f1f"/>
      <path id="Path_7" data-name="Path 7" d="M210.713,45.516c12.541.137,22.126,9.412,21.976,21.263-.147,11.645-10.269,20.949-22.591,20.768-11.962-.177-21.89-9.784-21.867-21.161C188.254,54.8,198.4,45.381,210.713,45.516Zm-.2,37.739c9.678.006,17.737-7.473,17.853-16.569.119-9.251-8.1-17.124-17.841-17.089-9.541.033-17.8,7.713-17.913,16.65C192.5,75.47,200.685,83.249,210.51,83.255Z" transform="translate(-59.48 -45.504)" fill="#1f1f1f"/>
      <path id="Path_8" data-name="Path 8" d="M166.486,46.08c10.068-1.2,18.672.353,24.845,8.322,9.245,11.938,1.613,29.546-13.8,32.186-10.884,1.864-11.042,1.732-11.042-9.172C166.488,67.109,166.486,56.8,166.486,46.08Zm4.587,4V82.857c7.552-.138,13.763-2.073,17.628-8.681,3.4-5.811,3.188-11.689-.786-17.056C183.826,51.6,178.048,49.6,171.073,50.082Z" transform="translate(-70.429 -45.401)" fill="#1f1f1f"/>
      <path id="Path_9" data-name="Path 9" d="M154,46.8l.227.251a2.777,2.777,0,0,1-.093,3.828L119.042,85.953,104.331,70.444a2.775,2.775,0,0,1-.014-3.805h0a2.775,2.775,0,0,1,4.1.051L118.9,78.469l31.051-31.74A2.786,2.786,0,0,1,154,46.8Z" transform="translate(-102.11 -45.315)" fill="#1f1f1f"/>
      <path id="Path_10" data-name="Path 10" d="M148.369,46.227c0,9.361-.065,18.509.021,27.656.063,6.7,5.774,10.848,12.075,8.865,3.876-1.219,5.655-3.947,5.634-8.014-.051-9.438-.017-18.875-.017-28.354,2.882-1.146,4.441-.952,4.405,2.457-.093,9.015.1,18.035-.1,27.047-.159,6.96-5.283,11.459-12.591,11.55-7.737.095-13.467-4.518-13.658-11.529-.247-9.011-.017-18.032-.111-27.047C143.993,45.92,145.219,45.192,148.369,46.227Z" transform="translate(-81.744 -45.385)" fill="#1f1f1f"/>
      <path id="Path_11" data-name="Path 11" d="M220.334,82.631c1.165-2.77,2.514-2.939,4.921-1.693,4.5,2.327,9.435,3.016,14.03.486,1.828-1.007,3.872-3.3,4.042-5.166.165-1.822-1.5-4.469-3.15-5.635-2.321-1.64-5.381-2.228-8.109-3.306-2.309-.914-4.843-1.529-6.846-2.9-5.458-3.75-5.622-11.259-.589-15.6,5.168-4.458,14.019-4.413,20.152.171-.591,2.521-1.86,3.383-4.378,2.046-3.63-1.928-7.576-2.261-10.989-.057-1.851,1.194-3.849,3.795-3.845,5.757,0,1.911,2.149,4.263,3.962,5.592,1.67,1.224,4.192,1.228,6.261,1.982a37.524,37.524,0,0,1,7.273,3.114c6.694,4.222,6.5,13.066-.223,17.166S226.668,87.9,220.334,82.631Z" transform="translate(-43.314 -45.507)" fill="#1f1f1f"/>
    </g>
  </g>
</svg>
